<mxfile host="Electron" agent="Mozilla/5.0 (Windows NT 10.0; Win64; x64) AppleWebKit/537.36 (KHTML, like Gecko) draw.io/24.7.17 Chrome/128.0.6613.36 Electron/32.0.1 Safari/537.36" version="24.7.17">
  <diagram name="Page-1" id="sUqcVRzRHTRMZLdzHKsm">
    <mxGraphModel dx="1036" dy="606" grid="1" gridSize="10" guides="1" tooltips="1" connect="1" arrows="1" fold="1" page="1" pageScale="1" pageWidth="850" pageHeight="1100" math="0" shadow="0">
      <root>
        <mxCell id="0" />
        <mxCell id="1" parent="0" />
        <mxCell id="-S_VFz-ffvNlaHWorEW4-25" style="edgeStyle=orthogonalEdgeStyle;rounded=0;orthogonalLoop=1;jettySize=auto;html=1;exitX=0.5;exitY=1;exitDx=0;exitDy=0;" edge="1" parent="1" source="-S_VFz-ffvNlaHWorEW4-2" target="-S_VFz-ffvNlaHWorEW4-4">
          <mxGeometry relative="1" as="geometry" />
        </mxCell>
        <mxCell id="-S_VFz-ffvNlaHWorEW4-2" value="Đăng nhập/ Đăng ký" style="rounded=0;whiteSpace=wrap;html=1;fillColor=#fff2cc;strokeColor=#d6b656;" vertex="1" parent="1">
          <mxGeometry x="360" y="170" width="160" height="60" as="geometry" />
        </mxCell>
        <mxCell id="-S_VFz-ffvNlaHWorEW4-19" style="edgeStyle=orthogonalEdgeStyle;rounded=0;orthogonalLoop=1;jettySize=auto;html=1;exitX=0.5;exitY=1;exitDx=0;exitDy=0;entryX=0.5;entryY=0;entryDx=0;entryDy=0;" edge="1" parent="1" source="-S_VFz-ffvNlaHWorEW4-3" target="-S_VFz-ffvNlaHWorEW4-2">
          <mxGeometry relative="1" as="geometry" />
        </mxCell>
        <mxCell id="-S_VFz-ffvNlaHWorEW4-3" value="&lt;font style=&quot;font-size: 18px;&quot;&gt;Bắt đầu&lt;/font&gt;" style="ellipse;whiteSpace=wrap;html=1;aspect=fixed;fillColor=#e1d5e7;strokeColor=#9673a6;" vertex="1" parent="1">
          <mxGeometry x="390" y="10" width="100" height="100" as="geometry" />
        </mxCell>
        <mxCell id="-S_VFz-ffvNlaHWorEW4-20" style="edgeStyle=orthogonalEdgeStyle;rounded=0;orthogonalLoop=1;jettySize=auto;html=1;exitX=1;exitY=0.5;exitDx=0;exitDy=0;" edge="1" parent="1" source="-S_VFz-ffvNlaHWorEW4-4" target="-S_VFz-ffvNlaHWorEW4-6">
          <mxGeometry relative="1" as="geometry" />
        </mxCell>
        <mxCell id="-S_VFz-ffvNlaHWorEW4-36" style="edgeStyle=orthogonalEdgeStyle;rounded=0;orthogonalLoop=1;jettySize=auto;html=1;exitX=0;exitY=0.5;exitDx=0;exitDy=0;" edge="1" parent="1" source="-S_VFz-ffvNlaHWorEW4-4" target="-S_VFz-ffvNlaHWorEW4-5">
          <mxGeometry relative="1" as="geometry" />
        </mxCell>
        <mxCell id="-S_VFz-ffvNlaHWorEW4-4" value="&lt;font style=&quot;font-size: 14px;&quot;&gt;Thông tin hợp lệ ?&lt;/font&gt;" style="rhombus;whiteSpace=wrap;html=1;fillColor=#f8cecc;strokeColor=#b85450;" vertex="1" parent="1">
          <mxGeometry x="357.5" y="270" width="165" height="100" as="geometry" />
        </mxCell>
        <mxCell id="-S_VFz-ffvNlaHWorEW4-5" value="&lt;font style=&quot;font-size: 14px;&quot;&gt;Nhập lại&lt;/font&gt;" style="rounded=0;whiteSpace=wrap;html=1;fillColor=#fff2cc;strokeColor=#d6b656;" vertex="1" parent="1">
          <mxGeometry x="190" y="410" width="120" height="50" as="geometry" />
        </mxCell>
        <mxCell id="-S_VFz-ffvNlaHWorEW4-27" style="edgeStyle=orthogonalEdgeStyle;rounded=0;orthogonalLoop=1;jettySize=auto;html=1;exitX=0.5;exitY=1;exitDx=0;exitDy=0;entryX=0.5;entryY=0;entryDx=0;entryDy=0;" edge="1" parent="1" source="-S_VFz-ffvNlaHWorEW4-6" target="-S_VFz-ffvNlaHWorEW4-8">
          <mxGeometry relative="1" as="geometry" />
        </mxCell>
        <mxCell id="-S_VFz-ffvNlaHWorEW4-6" value="&lt;font style=&quot;font-size: 14px;&quot;&gt;Giao diện chat&lt;/font&gt;" style="rounded=0;whiteSpace=wrap;html=1;fillColor=#fff2cc;strokeColor=#d6b656;" vertex="1" parent="1">
          <mxGeometry x="550" y="400" width="120" height="50" as="geometry" />
        </mxCell>
        <mxCell id="-S_VFz-ffvNlaHWorEW4-28" style="edgeStyle=orthogonalEdgeStyle;rounded=0;orthogonalLoop=1;jettySize=auto;html=1;exitX=0.5;exitY=1;exitDx=0;exitDy=0;" edge="1" parent="1" source="-S_VFz-ffvNlaHWorEW4-8" target="-S_VFz-ffvNlaHWorEW4-9">
          <mxGeometry relative="1" as="geometry" />
        </mxCell>
        <mxCell id="-S_VFz-ffvNlaHWorEW4-8" value="&lt;font style=&quot;font-size: 14px;&quot;&gt;Nhập tin nhắn&lt;/font&gt;" style="rounded=0;whiteSpace=wrap;html=1;fillColor=#fff2cc;strokeColor=#d6b656;" vertex="1" parent="1">
          <mxGeometry x="550" y="480" width="120" height="50" as="geometry" />
        </mxCell>
        <mxCell id="-S_VFz-ffvNlaHWorEW4-29" style="edgeStyle=orthogonalEdgeStyle;rounded=0;orthogonalLoop=1;jettySize=auto;html=1;exitX=0.5;exitY=1;exitDx=0;exitDy=0;entryX=0.5;entryY=0;entryDx=0;entryDy=0;" edge="1" parent="1" source="-S_VFz-ffvNlaHWorEW4-9" target="-S_VFz-ffvNlaHWorEW4-11">
          <mxGeometry relative="1" as="geometry" />
        </mxCell>
        <mxCell id="-S_VFz-ffvNlaHWorEW4-9" value="&lt;font style=&quot;font-size: 14px;&quot;&gt;Gửi đến sever&lt;/font&gt;" style="rounded=0;whiteSpace=wrap;html=1;fillColor=#fff2cc;strokeColor=#d6b656;" vertex="1" parent="1">
          <mxGeometry x="550" y="570" width="120" height="50" as="geometry" />
        </mxCell>
        <mxCell id="-S_VFz-ffvNlaHWorEW4-30" style="edgeStyle=orthogonalEdgeStyle;rounded=0;orthogonalLoop=1;jettySize=auto;html=1;exitX=0.5;exitY=1;exitDx=0;exitDy=0;entryX=0.5;entryY=0;entryDx=0;entryDy=0;" edge="1" parent="1" source="-S_VFz-ffvNlaHWorEW4-11" target="-S_VFz-ffvNlaHWorEW4-12">
          <mxGeometry relative="1" as="geometry" />
        </mxCell>
        <mxCell id="-S_VFz-ffvNlaHWorEW4-11" value="&lt;font style=&quot;font-size: 14px;&quot;&gt;Sever phân phối&lt;/font&gt;" style="rounded=0;whiteSpace=wrap;html=1;fillColor=#fff2cc;strokeColor=#d6b656;" vertex="1" parent="1">
          <mxGeometry x="550" y="660" width="120" height="50" as="geometry" />
        </mxCell>
        <mxCell id="-S_VFz-ffvNlaHWorEW4-31" style="edgeStyle=orthogonalEdgeStyle;rounded=0;orthogonalLoop=1;jettySize=auto;html=1;exitX=0.5;exitY=1;exitDx=0;exitDy=0;" edge="1" parent="1" source="-S_VFz-ffvNlaHWorEW4-12" target="-S_VFz-ffvNlaHWorEW4-13">
          <mxGeometry relative="1" as="geometry" />
        </mxCell>
        <mxCell id="-S_VFz-ffvNlaHWorEW4-12" value="&lt;font style=&quot;font-size: 14px;&quot;&gt;Hiển thị tin nhắn&lt;/font&gt;" style="rounded=0;whiteSpace=wrap;html=1;fillColor=#fff2cc;strokeColor=#d6b656;" vertex="1" parent="1">
          <mxGeometry x="550" y="750" width="120" height="60" as="geometry" />
        </mxCell>
        <mxCell id="-S_VFz-ffvNlaHWorEW4-32" style="edgeStyle=orthogonalEdgeStyle;rounded=0;orthogonalLoop=1;jettySize=auto;html=1;exitX=0;exitY=0.5;exitDx=0;exitDy=0;entryX=0.5;entryY=0;entryDx=0;entryDy=0;" edge="1" parent="1" source="-S_VFz-ffvNlaHWorEW4-13" target="-S_VFz-ffvNlaHWorEW4-17">
          <mxGeometry relative="1" as="geometry" />
        </mxCell>
        <mxCell id="-S_VFz-ffvNlaHWorEW4-33" style="edgeStyle=orthogonalEdgeStyle;rounded=0;orthogonalLoop=1;jettySize=auto;html=1;exitX=1;exitY=0.5;exitDx=0;exitDy=0;entryX=0.5;entryY=0;entryDx=0;entryDy=0;" edge="1" parent="1" source="-S_VFz-ffvNlaHWorEW4-13" target="-S_VFz-ffvNlaHWorEW4-16">
          <mxGeometry relative="1" as="geometry" />
        </mxCell>
        <mxCell id="-S_VFz-ffvNlaHWorEW4-13" value="&lt;font style=&quot;font-size: 14px;&quot;&gt;Tiếp tục chat ?&lt;/font&gt;" style="rhombus;whiteSpace=wrap;html=1;fillColor=#f8cecc;strokeColor=#b85450;" vertex="1" parent="1">
          <mxGeometry x="530" y="830" width="160" height="100" as="geometry" />
        </mxCell>
        <mxCell id="-S_VFz-ffvNlaHWorEW4-14" style="edgeStyle=orthogonalEdgeStyle;rounded=0;orthogonalLoop=1;jettySize=auto;html=1;exitX=0.5;exitY=1;exitDx=0;exitDy=0;" edge="1" parent="1" source="-S_VFz-ffvNlaHWorEW4-11" target="-S_VFz-ffvNlaHWorEW4-11">
          <mxGeometry relative="1" as="geometry" />
        </mxCell>
        <mxCell id="-S_VFz-ffvNlaHWorEW4-40" style="edgeStyle=orthogonalEdgeStyle;rounded=0;orthogonalLoop=1;jettySize=auto;html=1;exitX=0.5;exitY=1;exitDx=0;exitDy=0;entryX=0.5;entryY=0;entryDx=0;entryDy=0;" edge="1" parent="1" source="-S_VFz-ffvNlaHWorEW4-16" target="-S_VFz-ffvNlaHWorEW4-39">
          <mxGeometry relative="1" as="geometry" />
        </mxCell>
        <mxCell id="-S_VFz-ffvNlaHWorEW4-16" value="&lt;font style=&quot;font-size: 14px;&quot;&gt;Đăng xuất&lt;/font&gt;" style="rounded=0;whiteSpace=wrap;html=1;fillColor=#fff2cc;strokeColor=#d6b656;" vertex="1" parent="1">
          <mxGeometry x="720" y="920" width="120" height="50" as="geometry" />
        </mxCell>
        <mxCell id="-S_VFz-ffvNlaHWorEW4-17" value="&lt;font style=&quot;font-size: 14px;&quot;&gt;Quay lại nhập&lt;/font&gt;" style="rounded=0;whiteSpace=wrap;html=1;fillColor=#fff2cc;strokeColor=#d6b656;" vertex="1" parent="1">
          <mxGeometry x="400" y="920" width="120" height="50" as="geometry" />
        </mxCell>
        <mxCell id="-S_VFz-ffvNlaHWorEW4-22" value="&lt;font color=&quot;#ff3333&quot; style=&quot;font-size: 18px;&quot;&gt;Không&lt;/font&gt;" style="text;html=1;align=center;verticalAlign=middle;resizable=0;points=[];autosize=1;strokeColor=none;fillColor=none;" vertex="1" parent="1">
          <mxGeometry x="250" y="280" width="80" height="40" as="geometry" />
        </mxCell>
        <mxCell id="-S_VFz-ffvNlaHWorEW4-24" value="&lt;font color=&quot;#ff3333&quot; style=&quot;font-size: 18px;&quot;&gt;Có&lt;/font&gt;" style="text;html=1;align=center;verticalAlign=middle;resizable=0;points=[];autosize=1;strokeColor=none;fillColor=none;" vertex="1" parent="1">
          <mxGeometry x="560" y="280" width="50" height="40" as="geometry" />
        </mxCell>
        <mxCell id="-S_VFz-ffvNlaHWorEW4-37" value="&lt;font color=&quot;#ff3333&quot; style=&quot;font-size: 14px;&quot;&gt;Có&lt;/font&gt;" style="text;html=1;align=center;verticalAlign=middle;resizable=0;points=[];autosize=1;strokeColor=none;fillColor=none;" vertex="1" parent="1">
          <mxGeometry x="465" y="850" width="40" height="30" as="geometry" />
        </mxCell>
        <mxCell id="-S_VFz-ffvNlaHWorEW4-38" value="&lt;font color=&quot;#ff0000&quot; style=&quot;font-size: 14px;&quot;&gt;Không&lt;/font&gt;" style="text;html=1;align=center;verticalAlign=middle;resizable=0;points=[];autosize=1;strokeColor=none;fillColor=none;" vertex="1" parent="1">
          <mxGeometry x="720" y="850" width="60" height="30" as="geometry" />
        </mxCell>
        <mxCell id="-S_VFz-ffvNlaHWorEW4-39" value="&lt;font style=&quot;font-size: 14px;&quot;&gt;Kết thúc&lt;/font&gt;" style="ellipse;whiteSpace=wrap;html=1;aspect=fixed;fillColor=#e1d5e7;strokeColor=#9673a6;" vertex="1" parent="1">
          <mxGeometry x="730" y="1000" width="100" height="100" as="geometry" />
        </mxCell>
      </root>
    </mxGraphModel>
  </diagram>
</mxfile>
